<mxfile host="Electron" modified="2024-06-01T12:35:26.386Z" agent="Mozilla/5.0 (Windows NT 10.0; Win64; x64) AppleWebKit/537.36 (KHTML, like Gecko) draw.io/24.4.13 Chrome/124.0.6367.207 Electron/30.0.6 Safari/537.36" etag="jcxTr-idMknAbUaINvzo" version="24.4.13" type="device">
  <diagram name="Page-1" id="2YBvvXClWsGukQMizWep">
    <mxGraphModel dx="819" dy="478" grid="1" gridSize="10" guides="1" tooltips="1" connect="1" arrows="1" fold="1" page="1" pageScale="1" pageWidth="850" pageHeight="1100" math="0" shadow="0">
      <root>
        <mxCell id="0" />
        <mxCell id="1" parent="0" />
        <mxCell id="xBUY1pD00HOP4KwRxNKn-1" value="" style="shape=umlLifeline;perimeter=lifelinePerimeter;whiteSpace=wrap;html=1;container=1;dropTarget=0;collapsible=0;recursiveResize=0;outlineConnect=0;portConstraint=eastwest;newEdgeStyle={&quot;curved&quot;:0,&quot;rounded&quot;:0};participant=umlActor;" vertex="1" parent="1">
          <mxGeometry x="40" y="40" width="20" height="350" as="geometry" />
        </mxCell>
        <mxCell id="xBUY1pD00HOP4KwRxNKn-2" value="main UI" style="shape=umlLifeline;perimeter=lifelinePerimeter;whiteSpace=wrap;html=1;container=1;dropTarget=0;collapsible=0;recursiveResize=0;outlineConnect=0;portConstraint=eastwest;newEdgeStyle={&quot;curved&quot;:0,&quot;rounded&quot;:0};" vertex="1" parent="1">
          <mxGeometry x="130" y="40" width="100" height="300" as="geometry" />
        </mxCell>
        <mxCell id="xBUY1pD00HOP4KwRxNKn-7" value="" style="html=1;points=[[0,0,0,0,5],[0,1,0,0,-5],[1,0,0,0,5],[1,1,0,0,-5]];perimeter=orthogonalPerimeter;outlineConnect=0;targetShapes=umlLifeline;portConstraint=eastwest;newEdgeStyle={&quot;curved&quot;:0,&quot;rounded&quot;:0};" vertex="1" parent="xBUY1pD00HOP4KwRxNKn-2">
          <mxGeometry x="45" y="90" width="10" height="30" as="geometry" />
        </mxCell>
        <mxCell id="xBUY1pD00HOP4KwRxNKn-5" value="Press New Issue" style="html=1;verticalAlign=bottom;endArrow=block;curved=0;rounded=0;" edge="1" parent="1" target="xBUY1pD00HOP4KwRxNKn-7">
          <mxGeometry width="80" relative="1" as="geometry">
            <mxPoint x="50" y="130" as="sourcePoint" />
            <mxPoint x="130" y="130" as="targetPoint" />
          </mxGeometry>
        </mxCell>
        <mxCell id="xBUY1pD00HOP4KwRxNKn-6" value="Open New Issue UI" style="html=1;verticalAlign=bottom;endArrow=block;curved=0;rounded=0;" edge="1" parent="1">
          <mxGeometry width="80" relative="1" as="geometry">
            <mxPoint x="185" y="146" as="sourcePoint" />
            <mxPoint x="320" y="146" as="targetPoint" />
          </mxGeometry>
        </mxCell>
        <mxCell id="xBUY1pD00HOP4KwRxNKn-8" value="New Issue UI" style="shape=umlLifeline;perimeter=lifelinePerimeter;whiteSpace=wrap;html=1;container=1;dropTarget=0;collapsible=0;recursiveResize=0;outlineConnect=0;portConstraint=eastwest;newEdgeStyle={&quot;curved&quot;:0,&quot;rounded&quot;:0};" vertex="1" parent="1">
          <mxGeometry x="320" y="130" width="100" height="220" as="geometry" />
        </mxCell>
        <mxCell id="xBUY1pD00HOP4KwRxNKn-9" value="" style="html=1;points=[[0,0,0,0,5],[0,1,0,0,-5],[1,0,0,0,5],[1,1,0,0,-5]];perimeter=orthogonalPerimeter;outlineConnect=0;targetShapes=umlLifeline;portConstraint=eastwest;newEdgeStyle={&quot;curved&quot;:0,&quot;rounded&quot;:0};" vertex="1" parent="xBUY1pD00HOP4KwRxNKn-8">
          <mxGeometry x="45" y="50" width="10" height="140" as="geometry" />
        </mxCell>
        <mxCell id="xBUY1pD00HOP4KwRxNKn-10" value="Fill the Empty Field" style="html=1;verticalAlign=bottom;endArrow=block;curved=0;rounded=0;" edge="1" parent="1">
          <mxGeometry width="80" relative="1" as="geometry">
            <mxPoint x="50" y="189.76" as="sourcePoint" />
            <mxPoint x="365" y="189.76" as="targetPoint" />
          </mxGeometry>
        </mxCell>
        <mxCell id="xBUY1pD00HOP4KwRxNKn-11" value="Press the Save Button" style="html=1;verticalAlign=bottom;endArrow=block;curved=0;rounded=0;" edge="1" parent="1">
          <mxGeometry width="80" relative="1" as="geometry">
            <mxPoint x="50" y="220" as="sourcePoint" />
            <mxPoint x="365" y="220" as="targetPoint" />
          </mxGeometry>
        </mxCell>
        <mxCell id="xBUY1pD00HOP4KwRxNKn-12" value="" style="ellipse;html=1;shape=endState;fillColor=#000000;strokeColor=none;" vertex="1" parent="1">
          <mxGeometry x="360" y="340" width="20" height="20" as="geometry" />
        </mxCell>
        <mxCell id="xBUY1pD00HOP4KwRxNKn-13" value="Refresh Table" style="html=1;verticalAlign=bottom;endArrow=block;curved=0;rounded=0;" edge="1" parent="1">
          <mxGeometry x="0.0014" width="80" relative="1" as="geometry">
            <mxPoint x="365" y="316.76" as="sourcePoint" />
            <mxPoint x="185" y="316.76" as="targetPoint" />
            <mxPoint as="offset" />
          </mxGeometry>
        </mxCell>
        <mxCell id="xBUY1pD00HOP4KwRxNKn-16" value="newly created&lt;div&gt;Issue&lt;/div&gt;" style="shape=umlLifeline;perimeter=lifelinePerimeter;whiteSpace=wrap;html=1;container=1;dropTarget=0;collapsible=0;recursiveResize=0;outlineConnect=0;portConstraint=eastwest;newEdgeStyle={&quot;curved&quot;:0,&quot;rounded&quot;:0};" vertex="1" parent="1">
          <mxGeometry x="440" y="220" width="100" height="170" as="geometry" />
        </mxCell>
        <mxCell id="xBUY1pD00HOP4KwRxNKn-19" value="create New&lt;div&gt;Issue&lt;/div&gt;" style="html=1;verticalAlign=bottom;endArrow=block;curved=0;rounded=0;" edge="1" parent="1" source="xBUY1pD00HOP4KwRxNKn-9">
          <mxGeometry width="80" relative="1" as="geometry">
            <mxPoint x="380" y="240" as="sourcePoint" />
            <mxPoint x="440" y="240" as="targetPoint" />
          </mxGeometry>
        </mxCell>
        <mxCell id="xBUY1pD00HOP4KwRxNKn-21" value="Do SomeThing&amp;nbsp;" style="html=1;whiteSpace=wrap;" vertex="1" parent="1">
          <mxGeometry x="50" y="390" width="490" height="50" as="geometry" />
        </mxCell>
        <mxCell id="xBUY1pD00HOP4KwRxNKn-14" value="" style="html=1;points=[[0,0,0,0,5],[0,1,0,0,-5],[1,0,0,0,5],[1,1,0,0,-5]];perimeter=orthogonalPerimeter;outlineConnect=0;targetShapes=umlLifeline;portConstraint=eastwest;newEdgeStyle={&quot;curved&quot;:0,&quot;rounded&quot;:0};" vertex="1" parent="1">
          <mxGeometry x="175" y="310" width="10" height="80" as="geometry" />
        </mxCell>
      </root>
    </mxGraphModel>
  </diagram>
</mxfile>
